<?xml version="1.0" encoding="UTF-8"?>
<!DOCTYPE svg PUBLIC "-//W3C//DTD SVG 1.1//EN" "http://www.w3.org/Graphics/SVG/1.1/DTD/svg11.dtd">
<svg xmlns="http://www.w3.org/2000/svg" version="1.1" width="500px" height="200px" style="shape-rendering:geometricPrecision; text-rendering:geometricPrecision; image-rendering:optimizeQuality; fill-rule:evenodd; clip-rule:evenodd" xmlns:xlink="http://www.w3.org/1999/xlink">
<g><path style="opacity:0.995" fill="#025280" d="M 364.5,55.5 C 367.119,55.2317 369.619,55.565 372,56.5C 372.5,82.4979 372.667,108.498 372.5,134.5C 369.223,134.784 366.057,134.451 363,133.5C 362.833,120.667 362.667,107.833 362.5,95C 362.518,81.6107 363.185,68.4441 364.5,55.5 Z"/></g>
<g><path style="opacity:1" fill="#005185" d="M 230.5,55.5 C 237.127,54.153 239.793,56.8196 238.5,63.5C 239.422,70.8725 236.422,73.2059 229.5,70.5C 227.977,65.2325 228.31,60.2325 230.5,55.5 Z"/></g>
<g><path style="opacity:1" fill="#005185" d="M 340.5,55.5 C 347.127,54.153 349.793,56.8196 348.5,63.5C 349.422,70.8725 346.422,73.2059 339.5,70.5C 337.977,65.2325 338.31,60.2325 340.5,55.5 Z"/></g>
<g><path style="opacity:0.983" fill="#219c85" d="M 123.5,67.5 C 122.316,66.3121 122.316,65.1455 123.5,64C 122.833,63.6667 122.167,63.3333 121.5,63C 122.381,62.2917 123.047,61.4584 123.5,60.5C 128.393,56.2024 134.06,54.5357 140.5,55.5C 141.833,57.1667 141.833,58.8333 140.5,60.5C 134.007,60.9159 128.34,63.2493 123.5,67.5 Z"/></g>
<g><path style="opacity:0.991" fill="#005185" d="M 179.5,62.5 C 186.841,62.3337 194.174,62.5003 201.5,63C 211.736,66.4533 215.736,73.62 213.5,84.5C 210.5,84.5 207.5,84.5 204.5,84.5C 204.649,81.3926 204.149,78.3926 203,75.5C 202.5,73.6667 201.333,72.5 199.5,72C 193.5,71.3333 187.5,71.3333 181.5,72C 177.653,74.3387 175.986,77.8387 176.5,82.5C 176.081,85.7474 177.081,88.414 179.5,90.5C 187.462,92.7272 195.462,94.8938 203.5,97C 213.375,102.259 216.875,110.425 214,121.5C 212.61,127.891 208.776,132.058 202.5,134C 194.5,134.667 186.5,134.667 178.5,134C 168.893,129.955 165.227,122.788 167.5,112.5C 170.428,111.516 173.428,111.183 176.5,111.5C 175.702,116.715 177.036,121.215 180.5,125C 187.167,125.667 193.833,125.667 200.5,125C 204.776,120.108 205.61,114.608 203,108.5C 201.745,107.789 200.579,106.956 199.5,106C 191.797,104.126 184.131,102.126 176.5,100C 169.453,96.4174 166.119,90.584 166.5,82.5C 165.878,72.3704 170.211,65.7037 179.5,62.5 Z"/></g>
<g><path style="opacity:0.994" fill="#20a182" d="M 126.5,80.5 C 126.586,79.5041 126.252,78.6708 125.5,78C 126.687,76.9805 127.687,75.8139 128.5,74.5C 127.833,74.1667 127.167,73.8333 126.5,73.5C 127.127,72.5832 127.461,71.5832 127.5,70.5C 131.304,67.1185 135.637,65.7852 140.5,66.5C 141.833,68.1667 141.833,69.8333 140.5,71.5C 134.742,72.9461 130.076,75.9461 126.5,80.5 Z"/></g>
<g><path style="opacity:0.855" fill="#005285" d="M 229.5,77.5 C 232.5,77.5 235.5,77.5 238.5,77.5C 238.5,96.5 238.5,115.5 238.5,134.5C 235.223,134.784 232.057,134.451 229,133.5C 228.181,114.76 228.347,96.0932 229.5,77.5 Z"/></g>
<g><path style="opacity:0.994" fill="#005285" d="M 252.5,77.5 C 255.518,77.3354 258.518,77.502 261.5,78C 262.126,78.7504 262.626,79.5838 263,80.5C 264.419,79.5399 265.919,78.7065 267.5,78C 272.833,77.3333 278.167,77.3333 283.5,78C 286.562,79.0608 289.062,80.8941 291,83.5C 293.1,80.5332 295.934,78.6998 299.5,78C 308.75,75.6125 316.584,77.7791 323,84.5C 324.044,86.7148 324.71,89.0481 325,91.5C 325.667,105.5 325.667,119.5 325,133.5C 321.943,134.451 318.777,134.784 315.5,134.5C 315.667,120.163 315.5,105.829 315,91.5C 313.093,87.2923 309.759,85.2923 305,85.5C 299.636,85.3399 295.969,87.6732 294,92.5C 293.5,106.496 293.333,120.496 293.5,134.5C 290.223,134.784 287.057,134.451 284,133.5C 283.667,119.167 283.333,104.833 283,90.5C 282.535,89.0692 281.701,87.9025 280.5,87C 274.999,84.7864 269.666,85.1198 264.5,88C 263.5,89.6667 262.5,91.3333 261.5,93C 262.656,106.425 262.822,119.925 262,133.5C 258.943,134.451 255.777,134.784 252.5,134.5C 252.5,115.5 252.5,96.5 252.5,77.5 Z"/></g>
<g><path style="opacity:1" fill="#005185" d="M 339.5,77.5 C 342.5,77.5 345.5,77.5 348.5,77.5C 348.5,96.5 348.5,115.5 348.5,134.5C 345.223,134.784 342.057,134.451 339,133.5C 338.181,114.76 338.347,96.0932 339.5,77.5 Z"/></g>
<g><path style="opacity:0.994" fill="#005285" d="M 396.5,77.5 C 407.415,77.1797 418.248,77.513 429,78.5C 429.667,96.8333 429.667,115.167 429,133.5C 425.943,134.451 422.777,134.784 419.5,134.5C 419.657,133.127 419.49,131.793 419,130.5C 417.786,132.049 416.286,133.215 414.5,134C 408.5,134.667 402.5,134.667 396.5,134C 392.254,132.802 389.087,130.302 387,126.5C 385.393,113.904 385.059,101.237 386,88.5C 387.658,83.0101 391.158,79.3434 396.5,77.5 Z M 402.5,85.5 C 408.167,85.5 413.833,85.5 419.5,85.5C 419.667,96.8382 419.5,108.172 419,119.5C 416.889,124.89 412.889,126.89 407,125.5C 400.018,127.023 396.018,124.357 395,117.5C 394.333,109.833 394.333,102.167 395,94.5C 395.265,89.4173 397.765,86.4173 402.5,85.5 Z"/></g>
<g><path style="opacity:0.999" fill="#005185" d="M 443.5,77.5 C 446.5,77.5 449.5,77.5 452.5,77.5C 452.343,78.8734 452.51,80.2068 453,81.5C 454.319,79.5125 456.152,78.3459 458.5,78C 462.167,77.3333 465.833,77.3333 469.5,78C 470.435,80.3806 470.768,82.8806 470.5,85.5C 466.064,85.2101 461.73,85.7101 457.5,87C 455.185,88.1094 453.685,89.9427 453,92.5C 452.5,106.496 452.333,120.496 452.5,134.5C 449.223,134.784 446.057,134.451 443,133.5C 442.181,114.76 442.347,96.0932 443.5,77.5 Z"/></g>
<g><path style="opacity:0.952" fill="#2d569d" d="M 55.5,133.5 C 54.8106,134.774 53.9772,134.774 53,133.5C 52.2516,135.84 52.7516,137.84 54.5,139.5C 45.7335,133.875 40.2335,125.875 38,115.5C 35.9548,103.313 38.6214,92.3129 46,82.5C 48.8652,80.913 51.0319,81.5797 52.5,84.5C 39.8164,101.702 40.8164,118.035 55.5,133.5 Z"/></g>
<g><path style="opacity:0.997" fill="#26838c" d="M 123.5,60.5 C 123.047,61.4584 122.381,62.2917 121.5,63C 122.167,63.3333 122.833,63.6667 123.5,64C 122.316,65.1455 122.316,66.3121 123.5,67.5C 120.835,70.3347 118.335,73.3347 116,76.5C 111.619,85.6351 107.619,94.9684 104,104.5C 103.303,106.584 102.136,108.251 100.5,109.5C 100.663,107.143 100.497,104.81 100,102.5C 99.2949,104.986 98.4616,104.986 97.5,102.5C 101.593,90.9821 106.759,79.9821 113,69.5C 116.098,65.8926 119.598,62.8926 123.5,60.5 Z"/></g>
<g><path style="opacity:1" fill="#2d589e" d="M 69.5,128.5 C 69.3433,129.873 69.51,131.207 70,132.5C 71.8587,133.579 73.3587,134.912 74.5,136.5C 52.7288,130.968 44.8955,117.302 51,95.5C 52.7379,91.7587 55.2379,88.592 58.5,86C 59.549,85.5078 60.549,85.6744 61.5,86.5C 62.6309,88.0745 62.7975,89.7412 62,91.5C 51.5587,103.722 52.392,115.222 64.5,126C 66.1932,126.847 67.8599,127.68 69.5,128.5 Z"/></g>
<g><path style="opacity:0.916" fill="#249c84" d="M 114.5,127.5 C 113.625,124.757 113.292,122.09 113.5,119.5C 118.731,107.372 124.231,95.3716 130,83.5C 132.685,79.0728 136.518,77.2395 141.5,78C 142.059,78.7247 142.392,79.5581 142.5,80.5C 139.373,83.1634 136.539,86.1634 134,89.5C 130.551,99.0654 126.551,108.399 122,117.5C 120.021,121.3 117.521,124.634 114.5,127.5 Z"/></g>
<g><path style="opacity:0.973" fill="#2d569e" d="M 74.5,97.5 C 66.6191,100.362 64.4524,105.695 68,113.5C 69.4055,115.744 71.2389,117.41 73.5,118.5C 70.6771,119.385 70.0105,121.052 71.5,123.5C 63.6746,121.233 59.6746,115.9 59.5,107.5C 59.9458,98.2311 64.6125,93.0645 73.5,92C 74.4061,93.6995 74.7394,95.5328 74.5,97.5 Z"/></g>
<g><path style="opacity:0.99" fill="#2c6996" d="M 81.5,97.5 C 80.5318,99.6074 80.1984,101.941 80.5,104.5C 78.8472,103.471 77.5139,103.971 76.5,106C 77.0319,108.02 78.3652,108.853 80.5,108.5C 80.5,110.833 80.5,113.167 80.5,115.5C 71.6975,114.936 68.5308,110.269 71,101.5C 72.3756,100.295 73.5423,98.9616 74.5,97.5C 77.0048,96.5829 79.3382,96.5829 81.5,97.5 Z"/></g>
<g><path style="opacity:0.95" fill="#297592" d="M 97.5,102.5 C 98.4616,104.986 99.2949,104.986 100,102.5C 100.497,104.81 100.663,107.143 100.5,109.5C 97.8116,115.522 93.4783,119.855 87.5,122.5C 88.4288,119.476 89.7622,116.642 91.5,114C 90.944,113.617 90.6107,113.117 90.5,112.5C 93.3384,109.479 95.6717,106.146 97.5,102.5 Z"/></g>
<g><path style="opacity:0.976" fill="#268d88" d="M 127.5,70.5 C 127.461,71.5832 127.127,72.5832 126.5,73.5C 127.167,73.8333 127.833,74.1667 128.5,74.5C 127.687,75.8139 126.687,76.9805 125.5,78C 126.252,78.6708 126.586,79.5041 126.5,80.5C 122.54,87.4276 119.373,94.761 117,102.5C 114.23,109.056 110.73,115.056 106.5,120.5C 106.54,117.119 106.207,113.786 105.5,110.5C 110.285,100.32 114.785,89.9865 119,79.5C 121.334,76 124.168,73 127.5,70.5 Z"/></g>
<g><path style="opacity:1" fill="#239687" d="M 81.5,97.5 C 87.8783,99.5891 90.0449,103.922 88,110.5C 86.1433,113.2 83.6433,114.866 80.5,115.5C 80.5,113.167 80.5,110.833 80.5,108.5C 82.7813,106.968 82.7813,105.634 80.5,104.5C 80.1984,101.941 80.5318,99.6074 81.5,97.5 Z"/></g>
<g><path style="opacity:1" fill="#277f90" d="M 105.5,110.5 C 106.207,113.786 106.54,117.119 106.5,120.5C 101.878,127.45 95.5449,132.117 87.5,134.5C 86.7109,134.217 86.0442,133.717 85.5,133C 89.7225,130.756 89.3892,129.59 84.5,129.5C 93.6966,125.639 100.697,119.305 105.5,110.5 Z"/></g>
<g><path style="opacity:0.736" fill="#2a6896" d="M 90.5,112.5 C 90.6107,113.117 90.944,113.617 91.5,114C 89.7622,116.642 88.4288,119.476 87.5,122.5C 82.25,125.494 76.9167,125.827 71.5,123.5C 70.0105,121.052 70.6771,119.385 73.5,118.5C 80.2196,119.261 85.8862,117.261 90.5,112.5 Z"/></g>
<g><path style="opacity:0.932" fill="#2e549c" d="M 44.5,137.5 C 42.7259,138.881 41.2259,138.548 40,136.5C 39.8374,138.387 40.6707,139.887 42.5,141C 41.7476,141.671 41.4142,142.504 41.5,143.5C 35.9323,139.016 32.4323,133.35 31,126.5C 32.1332,124.789 33.6332,124.289 35.5,125C 38.3311,129.324 41.3311,133.491 44.5,137.5 Z"/></g>
<g><path style="opacity:0.835" fill="#296f94" d="M 69.5,128.5 C 74.4376,129.392 79.4376,129.726 84.5,129.5C 89.3892,129.59 89.7225,130.756 85.5,133C 86.0442,133.717 86.7109,134.217 87.5,134.5C 83.4091,135.895 79.0758,136.562 74.5,136.5C 73.3587,134.912 71.8587,133.579 70,132.5C 69.51,131.207 69.3433,129.873 69.5,128.5 Z"/></g>
<g><path style="opacity:1" fill="#24898b" d="M 113.5,119.5 C 113.292,122.09 113.625,124.757 114.5,127.5C 110.724,133.943 105.39,138.61 98.5,141.5C 97.7611,141.631 97.0944,141.464 96.5,141C 97.8009,139.384 97.8009,137.884 96.5,136.5C 98.6467,134.53 100.98,132.697 103.5,131C 106.698,126.974 110.032,123.141 113.5,119.5 Z"/></g>
<g><path style="opacity:1" fill="#2b6499" d="M 55.5,133.5 C 59.0461,135.772 62.7128,137.772 66.5,139.5C 67.77,141.548 68.1033,143.548 67.5,145.5C 62.4939,144.829 58.1606,142.829 54.5,139.5C 52.7516,137.84 52.2516,135.84 53,133.5C 53.9772,134.774 54.8106,134.774 55.5,133.5 Z"/></g>
<g><path style="opacity:0.917" fill="#239984" d="M 101.5,152.5 C 100.069,151.22 99.4021,149.553 99.5,147.5C 108.887,141.797 116.554,134.297 122.5,125C 126.487,124.661 127.987,126.494 127,130.5C 120.773,140.567 112.273,147.9 101.5,152.5 Z"/></g>
<g><path style="opacity:1" fill="#297593" d="M 96.5,136.5 C 97.8009,137.884 97.8009,139.384 96.5,141C 97.0944,141.464 97.7611,141.631 98.5,141.5C 88.7162,147.509 78.3829,148.842 67.5,145.5C 68.1033,143.548 67.77,141.548 66.5,139.5C 76.8304,141.481 86.8304,140.481 96.5,136.5 Z"/></g>
<g><path style="opacity:0.514" fill="#005084" d="M 326.5,141.5 C 327.5,141.5 328.5,141.5 329.5,141.5C 329.5,142.5 329.5,143.5 329.5,144.5C 328.5,144.5 327.5,144.5 326.5,144.5C 326.5,143.5 326.5,142.5 326.5,141.5 Z"/></g>
<g><path style="opacity:0.738" fill="#025485" d="M 252.5,141.5 C 256.167,141.5 259.833,141.5 263.5,141.5C 263.5,142.5 263.5,143.5 263.5,144.5C 261.801,144.34 260.134,144.506 258.5,145C 259.46,148.73 259.793,152.563 259.5,156.5C 258.167,156.5 256.833,156.5 255.5,156.5C 255.207,152.563 255.54,148.73 256.5,145C 255.207,144.51 253.873,144.343 252.5,144.5C 252.5,143.5 252.5,142.5 252.5,141.5 Z"/></g>
<g><path style="opacity:0.641" fill="#024f83" d="M 388.5,154.5 C 387.172,156.745 385.339,157.078 383,155.5C 382.667,152.833 382.333,150.167 382,147.5C 381.502,150.482 381.335,153.482 381.5,156.5C 377.832,156.25 374.332,156.25 371,156.5C 369.014,155.343 367.18,154.009 365.5,152.5C 363.833,153.833 362.167,155.167 360.5,156.5C 359.833,156.167 359.167,155.833 358.5,155.5C 360.626,151.289 362.459,146.956 364,142.5C 364.561,141.978 365.228,141.645 366,141.5C 368.446,144.731 370.112,148.397 371,152.5C 371.333,150.167 371.667,147.833 372,145.5C 373,144.167 374,144.167 375,145.5C 376,156.167 377,156.167 378,145.5C 379.113,144.289 380.28,144.289 381.5,145.5C 382.148,143.851 383.148,142.518 384.5,141.5C 384.841,143.595 386.341,145.261 389,146.5C 392.761,143.641 395.761,144.308 398,148.5C 398.219,147.062 398.719,145.729 399.5,144.5C 402.939,144.793 406.439,144.793 410,144.5C 411.261,144.759 412.261,145.426 413,146.5C 413.498,149.817 413.665,153.15 413.5,156.5C 412.5,156.5 411.5,156.5 410.5,156.5C 410.817,153.428 410.484,150.428 409.5,147.5C 408.914,147.709 408.414,148.043 408,148.5C 407.503,151.146 407.336,153.813 407.5,156.5C 406.5,156.5 405.5,156.5 404.5,156.5C 404.817,153.428 404.484,150.428 403.5,147.5C 402.914,147.709 402.414,148.043 402,148.5C 401.503,151.146 401.336,153.813 401.5,156.5C 400.5,156.5 399.5,156.5 398.5,156.5C 398.657,155.127 398.49,153.793 398,152.5C 395.632,156.94 392.466,157.607 388.5,154.5 Z M 388.5,154.5 C 387.527,154.013 386.527,153.513 385.5,153C 386.833,151.333 386.833,149.667 385.5,148C 386.5,147.333 387.5,147.333 388.5,148C 387.395,150.12 387.395,152.287 388.5,154.5 Z M 392.5,147.5 C 395.242,148.558 395.909,150.391 394.5,153C 393.552,153.483 392.552,153.649 391.5,153.5C 391.325,151.379 391.659,149.379 392.5,147.5 Z"/></g>
<g><path style="opacity:0.66" fill="#024f81" d="M 445.5,144.5 C 451.303,144.81 453.47,147.81 452,153.5C 449.339,156.966 446.339,157.299 443,154.5C 441.863,150.537 442.697,147.204 445.5,144.5 Z M 446.5,147.5 C 448.484,147.484 449.484,148.484 449.5,150.5C 448.167,154.5 446.833,154.5 445.5,150.5C 445.685,149.416 446.018,148.416 446.5,147.5 Z"/></g>
<g><path style="opacity:1" fill="#2b6599" d="M 44.5,137.5 C 49.3241,142.741 54.9908,146.741 61.5,149.5C 61.1778,150.858 61.1778,152.525 61.5,154.5C 60.5,154.5 59.5,154.5 58.5,154.5C 51.9735,152.076 46.3068,148.409 41.5,143.5C 41.4142,142.504 41.7476,141.671 42.5,141C 40.6707,139.887 39.8374,138.387 40,136.5C 41.2259,138.548 42.7259,138.881 44.5,137.5 Z"/></g>
<g><path style="opacity:0.673" fill="#024f84" d="M 347.5,144.5 C 352.5,144.167 354.833,146.5 354.5,151.5C 352.143,151.337 349.81,151.503 347.5,152C 348.99,153.772 350.657,153.939 352.5,152.5C 355.044,153.735 355.044,154.901 352.5,156C 343.943,155.523 342.276,151.69 347.5,144.5 Z M 348.5,147.5 C 349.756,147.461 350.756,147.961 351.5,149C 350.167,149.667 348.833,149.667 347.5,149C 348.056,148.617 348.389,148.117 348.5,147.5 Z"/></g>
<g><path style="opacity:0.987" fill="#238b8b" d="M 99.5,147.5 C 99.4021,149.553 100.069,151.22 101.5,152.5C 96.7426,155.695 91.4093,157.361 85.5,157.5C 87.7361,155.986 87.4028,154.486 84.5,153C 85.7375,152.768 86.7375,152.268 87.5,151.5C 91.4214,149.971 95.4214,148.637 99.5,147.5 Z"/></g>
<g><path style="opacity:0.578" fill="#014e82" d="M 318.5,144.5 C 320.584,145.248 322.584,145.248 324.5,144.5C 325.66,148.459 325.827,152.459 325,156.5C 322.371,159.54 319.204,160.206 315.5,158.5C 315.36,156.876 316.027,155.71 317.5,155C 314.615,151.056 314.948,147.556 318.5,144.5 Z M 319.5,147.5 C 322.389,147.999 323.056,149.499 321.5,152C 320.552,152.483 319.552,152.649 318.5,152.5C 318.366,150.708 318.699,149.042 319.5,147.5 Z"/></g>
<g><path style="opacity:1" fill="#287b92" d="M 61.5,149.5 C 70.0062,152.313 78.6728,152.98 87.5,151.5C 86.7375,152.268 85.7375,152.768 84.5,153C 87.4028,154.486 87.7361,155.986 85.5,157.5C 76.1197,159.285 67.1197,158.285 58.5,154.5C 59.5,154.5 60.5,154.5 61.5,154.5C 61.1778,152.525 61.1778,150.858 61.5,149.5 Z"/></g>
<g><path style="opacity:0.678" fill="#005082" d="M 333.5,144.5 C 335.582,144.472 337.416,145.139 339,146.5C 339.498,149.817 339.665,153.15 339.5,156.5C 336.552,156.777 333.719,156.444 331,155.5C 330.082,152.937 330.582,150.77 332.5,149C 329.862,146.907 330.196,145.407 333.5,144.5 Z M 333.5,151.5 C 334.675,151.281 335.675,151.614 336.5,152.5C 334.948,153.798 333.948,153.465 333.5,151.5 Z"/></g>
<g><path style="opacity:0.624" fill="#014e83" d="M 270.5,153.5 C 269.852,155.586 268.352,156.586 266,156.5C 261.812,155.465 260.146,152.799 261,148.5C 263.714,143.761 266.881,143.427 270.5,147.5C 272.109,146.112 273.942,145.112 276,144.5C 279.074,144.673 282.074,144.673 285,144.5C 287.257,145.09 288.924,146.423 290,148.5C 293.918,143.028 297.251,143.362 300,149.5C 300.497,146.854 300.664,144.187 300.5,141.5C 301.5,141.5 302.5,141.5 303.5,141.5C 303.5,146.5 303.5,151.5 303.5,156.5C 302.5,156.5 301.5,156.5 300.5,156.5C 300.66,154.801 300.494,153.134 300,151.5C 297.773,157.279 294.439,157.946 290,153.5C 289.517,154.448 289.351,155.448 289.5,156.5C 288.5,156.5 287.5,156.5 286.5,156.5C 286.664,153.813 286.497,151.146 286,148.5C 285.586,148.043 285.086,147.709 284.5,147.5C 283.516,150.428 283.183,153.428 283.5,156.5C 280.269,155.819 276.936,155.652 273.5,156C 272.309,155.302 271.309,154.469 270.5,153.5 Z M 270.5,153.5 C 268.147,153.777 265.814,153.277 263.5,152C 264.667,151.833 265.833,151.667 267,151.5C 268.681,151.608 269.848,152.275 270.5,153.5 Z M 293.5,147.5 C 295.564,147.762 296.897,148.929 297.5,151C 293.046,154.397 291.712,153.231 293.5,147.5 Z M 274.5,147.5 C 276.117,148.038 277.784,148.371 279.5,148.5C 279.597,152.692 277.764,154.025 274,152.5C 273.36,150.735 273.527,149.068 274.5,147.5 Z M 264.5,147.5 C 266.983,147.73 267.483,148.397 266,149.5C 264.97,149.164 264.47,148.497 264.5,147.5 Z"/></g>
<g><path style="opacity:0.553" fill="#004f83" d="M 308.5,144.5 C 310.582,144.472 312.416,145.139 314,146.5C 315.004,149.993 314.504,153.159 312.5,156C 306.667,156.833 304.167,154.333 305,148.5C 305.69,146.65 306.856,145.316 308.5,144.5 Z M 308.5,147.5 C 310.564,147.762 311.897,148.929 312.5,151C 308.046,154.397 306.712,153.231 308.5,147.5 Z"/></g>
<g><path style="opacity:0.843" fill="#005084" d="M 326.5,145.5 C 327.5,145.5 328.5,145.5 329.5,145.5C 329.5,149.167 329.5,152.833 329.5,156.5C 328.5,156.5 327.5,156.5 326.5,156.5C 326.5,152.833 326.5,149.167 326.5,145.5 Z"/></g>
<g><path style="opacity:0.475" fill="#014f82" d="M 434.5,141.5 C 436.331,142.052 437.997,142.052 439.5,141.5C 440.731,142.651 440.731,143.817 439.5,145C 440,145.5 440.5,146 441,146.5C 441.498,149.817 441.665,153.15 441.5,156.5C 438.315,156.98 435.481,156.314 433,154.5C 431.052,157.363 428.552,158.363 425.5,157.5C 426.476,155.877 425.976,154.543 424,153.5C 423.517,154.448 423.351,155.448 423.5,156.5C 420.552,156.777 417.719,156.444 415,155.5C 414.082,152.937 414.582,150.77 416.5,149C 414.74,148.035 414.406,146.868 415.5,145.5C 419.243,143.813 422.076,144.813 424,148.5C 425.599,145.114 428.099,144.114 431.5,145.5C 432.386,146.325 432.719,147.325 432.5,148.5C 431.07,148.579 429.736,148.246 428.5,147.5C 425.71,149.927 425.876,151.927 429,153.5C 431.455,152.372 433.622,150.872 435.5,149C 434.572,148.612 433.905,147.945 433.5,147C 433.591,145.186 433.925,143.353 434.5,141.5 Z M 435.5,151.5 C 436.675,151.281 437.675,151.614 438.5,152.5C 436.948,153.798 435.948,153.465 435.5,151.5 Z M 417.5,151.5 C 421.276,151.469 421.443,152.136 418,153.5C 416.316,153.317 416.15,152.65 417.5,151.5 Z"/></g>
</svg>
